<svg width="665" height="82" viewBox="0 0 665 82" fill="none" xmlns="http://www.w3.org/2000/svg">
<path fill-rule="evenodd" clip-rule="evenodd" d="M79.0824 47.5051C79.2094 47.4135 79.3303 47.3117 79.4439 47.2004C80.0318 46.629 80.3679 45.8382 80.3774 45.0535L80.6582 34.4993C80.671 34.0755 80.5988 33.6701 80.4462 33.2801C80.3661 33.0746 80.2607 32.8797 80.1405 32.7013C80.0292 32.5363 79.9032 32.3877 79.7217 32.2052C79.4309 31.9277 79.0927 31.7146 78.722 31.5688C78.3259 31.4141 77.8944 31.3417 77.4962 31.3572C75.8958 31.3981 74.2592 31.3854 72.6254 31.3191C71.2139 31.2651 70.026 30.5804 69.1933 29.3449C68.1081 27.7348 68.0021 25.6528 68.9219 24.0535C69.4839 23.078 70.939 21.734 72.1284 20.6405C72.4254 20.369 72.7179 20.1005 72.994 19.8366C74.1328 18.7642 74.3451 17.0774 73.5034 15.8286L73.4899 15.8182C73.3787 15.6532 73.2541 15.4972 73.1176 15.3621L65.7163 7.84517C65.4404 7.57059 65.1141 7.35593 64.7344 7.19674C64.3861 7.05529 64.0128 6.98258 63.5951 6.97873C63.5832 6.98028 63.5716 6.97996 63.56 6.97965C63.5485 6.97933 63.5369 6.97902 63.525 6.98057C63.1238 6.99155 62.7229 7.08009 62.3791 7.23399C62.0114 7.39099 61.6903 7.60743 61.3786 7.91482C60.3545 8.95528 59.29 9.96462 58.2147 10.9099C56.9643 12.0186 55.3767 12.5502 53.8528 12.3774C52.4766 12.2218 51.3065 11.525 50.561 10.4189C50.2153 9.90602 49.9601 9.30613 49.8106 8.64156C49.5941 7.68568 49.6625 6.22047 49.7284 4.80845L49.7285 4.80513L49.7393 4.5597L49.7393 4.55964L49.7393 4.55958C49.7628 4.02872 49.7858 3.50689 49.7912 3.0311C49.8089 2.40298 49.6313 1.80269 49.2916 1.29869C48.7415 0.48249 47.8381 0.0081897 46.8013 4.03757e-07L35.986 0.00539315C34.3167 0.0018912 32.9567 1.29467 32.8919 2.94041C32.8681 3.54023 32.8577 4.13102 32.8472 4.72181L32.849 4.77253C32.7928 8.12482 32.6752 9.9424 30.7193 11.3903C29.0652 12.622 26.9852 12.8174 25.2949 11.907C24.2943 11.3666 22.9596 9.94292 21.8802 8.79167L21.8509 8.76038C21.7517 8.65566 21.6538 8.55162 21.5575 8.44942L21.557 8.44891C21.3697 8.24991 21.1889 8.0579 21.0185 7.88146C20.7576 7.60978 20.4477 7.39056 20.0918 7.22827C20.0455 7.20761 19.9991 7.18697 19.9483 7.16932C19.606 7.03679 19.1939 6.96428 18.821 6.96915C18.4511 6.97848 18.0845 7.05044 17.7317 7.19096C17.3744 7.33448 17.0101 7.57351 16.7339 7.83745L8.82577 15.4571C8.54818 15.7285 8.31859 16.0519 8.17849 16.3733C8.00436 16.7501 7.91091 17.1504 7.89803 17.5547C7.88516 17.9591 7.95432 18.36 8.10094 18.7412C8.17804 18.9422 8.27744 19.1281 8.39768 19.3065C8.49087 19.4448 8.61392 19.5889 8.7264 19.7076L11.8621 22.9454C12.075 23.1651 12.2656 23.3998 12.431 23.6451C13.3719 25.0411 13.4584 26.8249 12.6714 28.4191C11.8651 30.0521 10.2983 31.1341 8.48662 31.3044C7.87081 31.3627 6.52245 31.4023 3.58457 31.2874C2.73712 31.2618 1.93758 31.5672 1.33334 32.1431C0.738015 32.713 0.389962 33.5054 0.384957 34.2871L0.119149 45.162C0.116448 45.514 0.177941 45.8747 0.295861 46.1844C0.371507 46.3929 0.487481 46.6131 0.610734 46.7959C0.700913 46.9297 0.810487 47.0635 0.916962 47.1733C1.03246 47.2947 1.15738 47.4049 1.29525 47.5051L15.8596 47.5051L15.8596 77.9997C15.8596 79.6566 17.2027 80.9997 18.8596 80.9997L62.7556 80.9997C64.4125 80.9997 65.7556 79.6566 65.7556 77.9997L65.7556 47.5052L79.0824 47.5051ZM60.5716 26.976C60.5716 25.3192 59.2285 23.976 57.5716 23.976L24.0436 23.976C22.3868 23.976 21.0436 25.3192 21.0436 26.976L21.0436 73.4641C21.0436 75.1209 22.3868 76.4641 24.0436 76.4641L57.5716 76.4641C59.2285 76.4641 60.5716 75.1209 60.5716 73.4641L60.5716 26.976Z" fill="white"/>
<path d="M138.9 23.292C140.065 23.292 140.927 23.3427 141.484 23.444C142.092 23.4947 142.751 23.7227 143.46 24.128C144.22 24.5333 144.752 25.2173 145.056 26.18C145.36 27.1427 145.512 28.4347 145.512 30.056C145.512 31.6773 145.36 32.9693 145.056 33.932C144.752 34.8947 144.22 35.5787 143.46 35.984C142.7 36.3387 142.016 36.5667 141.408 36.668C140.851 36.7187 139.964 36.744 138.748 36.744H115.492V44.42H130.464C131.68 44.42 132.567 44.4707 133.124 44.572C133.732 44.6227 134.416 44.8507 135.176 45.256C136.493 46.016 137.152 48.0173 137.152 51.26C137.152 54.8067 136.189 56.9093 134.264 57.568C133.453 57.8213 132.161 57.948 130.388 57.948H115.492V72.312C115.492 73.528 115.441 74.4147 115.34 74.972C115.289 75.5293 115.061 76.188 114.656 76.948C113.947 78.316 111.971 79 108.728 79C105.181 79 103.104 78.0373 102.496 76.112C102.192 75.3013 102.04 74.0093 102.04 72.236V29.98C102.04 27.396 102.521 25.648 103.484 24.736C104.447 23.7733 106.271 23.292 108.956 23.292H138.9ZM163.883 67.752H184.555C186.227 67.752 187.443 67.9547 188.203 68.36C188.963 68.7147 189.469 69.2973 189.723 70.108C189.976 70.9187 190.103 72.008 190.103 73.376C190.103 74.6933 189.976 75.7573 189.723 76.568C189.469 77.3787 189.039 77.936 188.431 78.24C187.468 78.7467 186.151 79 184.479 79H157.119C153.572 79 151.495 78.0373 150.887 76.112C150.583 75.3013 150.431 74.0093 150.431 72.236V29.98C150.431 28.8147 150.456 27.9533 150.507 27.396C150.608 26.788 150.861 26.104 151.267 25.344C151.976 23.976 153.952 23.292 157.195 23.292C160.741 23.292 162.844 24.2293 163.503 26.104C163.756 26.9653 163.883 28.2827 163.883 30.056V67.752ZM231.44 25.344C231.947 24.5333 232.681 23.976 233.644 23.672C234.607 23.368 235.797 23.216 237.216 23.216C238.685 23.216 239.851 23.3427 240.712 23.596C241.573 23.8493 242.232 24.1533 242.688 24.508C243.144 24.8627 243.473 25.3947 243.676 26.104C243.98 26.9653 244.132 28.2827 244.132 30.056V53.008C244.132 59.696 242.055 65.776 237.9 71.248C235.873 73.832 233.264 75.9347 230.072 77.556C226.88 79.1267 223.333 79.912 219.432 79.912C215.581 79.912 212.06 79.1013 208.868 77.48C205.727 75.8587 203.168 73.7307 201.192 71.096C197.088 65.7253 195.036 59.6453 195.036 52.856V29.98C195.036 28.764 195.061 27.8773 195.112 27.32C195.213 26.712 195.467 26.028 195.872 25.268C196.277 24.508 196.961 23.976 197.924 23.672C198.887 23.368 200.179 23.216 201.8 23.216C203.421 23.216 204.713 23.368 205.676 23.672C206.639 23.976 207.297 24.508 207.652 25.268C208.26 26.4333 208.564 28.0293 208.564 30.056V52.856C208.564 55.9467 209.324 58.8853 210.844 61.672C211.604 63.0907 212.744 64.2307 214.264 65.092C215.784 65.9533 217.583 66.384 219.66 66.384C223.359 66.384 226.12 65.016 227.944 62.28C229.768 59.544 230.68 56.3773 230.68 52.78V29.524C230.68 27.548 230.933 26.1547 231.44 25.344ZM253.829 23.216H296.085C297.706 23.216 298.897 23.4187 299.657 23.824C300.417 24.1787 300.923 24.7613 301.177 25.572C301.43 26.3827 301.557 27.4467 301.557 28.764C301.557 30.0813 301.43 31.1453 301.177 31.956C300.923 32.716 300.493 33.248 299.885 33.552C298.973 34.008 297.681 34.236 296.009 34.236H281.493V72.464C281.493 73.6293 281.442 74.4907 281.341 75.048C281.29 75.6053 281.062 76.264 280.657 77.024C280.302 77.7333 279.643 78.24 278.681 78.544C277.718 78.848 276.451 79 274.881 79C273.31 79 272.043 78.848 271.081 78.544C270.169 78.24 269.51 77.7333 269.105 77.024C268.75 76.264 268.522 75.6053 268.421 75.048C268.37 74.44 268.345 73.5533 268.345 72.388V34.236H253.753C252.131 34.236 250.941 34.0587 250.181 33.704C249.421 33.2987 248.914 32.6907 248.661 31.88C248.407 31.0693 248.281 30.0053 248.281 28.688C248.281 27.3707 248.407 26.332 248.661 25.572C248.914 24.7613 249.345 24.204 249.953 23.9C250.865 23.444 252.157 23.216 253.829 23.216ZM309.418 23.216H351.674C353.296 23.216 354.486 23.4187 355.246 23.824C356.006 24.1787 356.513 24.7613 356.766 25.572C357.02 26.3827 357.146 27.4467 357.146 28.764C357.146 30.0813 357.02 31.1453 356.766 31.956C356.513 32.716 356.082 33.248 355.474 33.552C354.562 34.008 353.27 34.236 351.598 34.236H337.082V72.464C337.082 73.6293 337.032 74.4907 336.93 75.048C336.88 75.6053 336.652 76.264 336.246 77.024C335.892 77.7333 335.233 78.24 334.27 78.544C333.308 78.848 332.041 79 330.47 79C328.9 79 327.633 78.848 326.67 78.544C325.758 78.24 325.1 77.7333 324.694 77.024C324.34 76.264 324.112 75.6053 324.01 75.048C323.96 74.44 323.934 73.5533 323.934 72.388V34.236H309.342C307.721 34.236 306.53 34.0587 305.77 33.704C305.01 33.2987 304.504 32.6907 304.25 31.88C303.997 31.0693 303.87 30.0053 303.87 28.688C303.87 27.3707 303.997 26.332 304.25 25.572C304.504 24.7613 304.934 24.204 305.542 23.9C306.454 23.444 307.746 23.216 309.418 23.216ZM374.812 65.548H398.22C399.386 65.548 400.247 65.5987 400.804 65.7C401.412 65.7507 402.096 65.9787 402.856 66.384C404.224 67.0933 404.908 69.0693 404.908 72.312C404.908 75.8587 403.971 77.936 402.096 78.544C401.235 78.848 399.918 79 398.144 79H368.048C364.502 79 362.424 78.0373 361.816 76.112C361.512 75.3013 361.36 74.0093 361.36 72.236V29.98C361.36 27.396 361.842 25.648 362.804 24.736C363.767 23.7733 365.591 23.292 368.276 23.292H398.22C399.386 23.292 400.247 23.3427 400.804 23.444C401.412 23.4947 402.096 23.7227 402.856 24.128C404.224 24.8373 404.908 26.8133 404.908 30.056C404.908 33.6027 403.971 35.68 402.096 36.288C401.235 36.592 399.918 36.744 398.144 36.744H374.812V44.42H389.86C391.026 44.42 391.887 44.4707 392.444 44.572C393.052 44.6227 393.736 44.8507 394.496 45.256C395.864 45.9653 396.548 47.9413 396.548 51.184C396.548 54.7307 395.586 56.808 393.66 57.416C392.799 57.72 391.482 57.872 389.708 57.872H374.812V65.548ZM452.461 69.576C453.221 71.4 453.601 72.7173 453.601 73.528C453.601 75.4533 452.03 77.0747 448.889 78.392C447.268 79.1013 445.95 79.456 444.937 79.456C443.974 79.456 443.164 79.228 442.505 78.772C441.897 78.2653 441.441 77.7587 441.137 77.252C440.63 76.2893 438.654 71.704 435.209 63.496L432.853 63.648H423.277V72.236C423.277 73.4013 423.226 74.288 423.125 74.896C423.074 75.4533 422.846 76.112 422.441 76.872C421.732 78.24 419.756 78.924 416.513 78.924C412.966 78.924 410.889 77.9867 410.281 76.112C409.977 75.2507 409.825 73.9333 409.825 72.16V29.98C409.825 28.8147 409.85 27.9533 409.901 27.396C410.002 26.788 410.256 26.104 410.661 25.344C411.37 23.976 413.346 23.292 416.589 23.292H433.005C437.464 23.292 441.796 24.9133 446.001 28.156C448.028 29.7267 449.7 31.8547 451.017 34.54C452.334 37.2253 452.993 40.2147 452.993 43.508C452.993 49.2333 451.093 53.9453 447.293 57.644C448.408 60.3293 450.13 64.3067 452.461 69.576ZM423.277 50.196H433.005C434.474 50.196 435.944 49.6387 437.413 48.524C438.882 47.4093 439.617 45.7373 439.617 43.508C439.617 41.2787 438.882 39.6067 437.413 38.492C435.944 37.3267 434.424 36.744 432.853 36.744H423.277V50.196ZM494.63 23.292C495.796 23.292 496.657 23.3427 497.214 23.444C497.822 23.4947 498.481 23.7227 499.19 24.128C499.95 24.5333 500.482 25.2173 500.786 26.18C501.09 27.1427 501.242 28.4347 501.242 30.056C501.242 31.6773 501.09 32.9693 500.786 33.932C500.482 34.8947 499.95 35.5787 499.19 35.984C498.43 36.3387 497.746 36.5667 497.138 36.668C496.581 36.7187 495.694 36.744 494.478 36.744H471.222V44.42H486.194C487.41 44.42 488.297 44.4707 488.854 44.572C489.462 44.6227 490.146 44.8507 490.906 45.256C492.224 46.016 492.882 48.0173 492.882 51.26C492.882 54.8067 491.92 56.9093 489.994 57.568C489.184 57.8213 487.892 57.948 486.118 57.948H471.222V72.312C471.222 73.528 471.172 74.4147 471.07 74.972C471.02 75.5293 470.792 76.188 470.386 76.948C469.677 78.316 467.701 79 464.458 79C460.912 79 458.834 78.0373 458.226 76.112C457.922 75.3013 457.77 74.0093 457.77 72.236V29.98C457.77 27.396 458.252 25.648 459.214 24.736C460.177 23.7733 462.001 23.292 464.686 23.292H494.63ZM519.613 67.752H540.285C541.957 67.752 543.173 67.9547 543.933 68.36C544.693 68.7147 545.2 69.2973 545.453 70.108C545.706 70.9187 545.833 72.008 545.833 73.376C545.833 74.6933 545.706 75.7573 545.453 76.568C545.2 77.3787 544.769 77.936 544.161 78.24C543.198 78.7467 541.881 79 540.209 79H512.849C509.302 79 507.225 78.0373 506.617 76.112C506.313 75.3013 506.161 74.0093 506.161 72.236V29.98C506.161 28.8147 506.186 27.9533 506.237 27.396C506.338 26.788 506.592 26.104 506.997 25.344C507.706 23.976 509.682 23.292 512.925 23.292C516.472 23.292 518.574 24.2293 519.233 26.104C519.486 26.9653 519.613 28.2827 519.613 30.056V67.752ZM550.767 29.98C550.767 28.8147 550.792 27.9533 550.843 27.396C550.944 26.788 551.197 26.104 551.603 25.344C552.312 23.976 554.288 23.292 557.531 23.292C561.077 23.292 563.18 24.2293 563.839 26.104C564.092 26.9653 564.219 28.2827 564.219 30.056V72.312C564.219 73.528 564.168 74.4147 564.067 74.972C564.016 75.5293 563.788 76.188 563.383 76.948C562.673 78.316 560.697 79 557.455 79C553.908 79 551.831 78.0373 551.223 76.112C550.919 75.3013 550.767 74.0093 550.767 72.236V29.98ZM611.402 34.54C612.719 37.2253 613.378 40.2147 613.378 43.508C613.378 46.8013 612.719 49.7907 611.402 52.476C610.085 55.1107 608.387 57.2133 606.31 58.784C602.105 62.0267 597.747 63.648 593.238 63.648H583.738V72.236C583.738 73.4013 583.687 74.288 583.586 74.896C583.535 75.4533 583.307 76.112 582.902 76.872C582.193 78.24 580.217 78.924 576.974 78.924C573.427 78.924 571.35 77.9867 570.742 76.112C570.438 75.2507 570.286 73.9333 570.286 72.16V29.98C570.286 28.8147 570.311 27.9533 570.362 27.396C570.463 26.788 570.717 26.104 571.122 25.344C571.831 23.976 573.807 23.292 577.05 23.292H593.314C597.773 23.292 602.105 24.9133 606.31 28.156C608.387 29.7267 610.085 31.8547 611.402 34.54ZM593.314 50.196C594.834 50.196 596.329 49.6387 597.798 48.524C599.267 47.4093 600.002 45.7373 600.002 43.508C600.002 41.2787 599.267 39.6067 597.798 38.492C596.329 37.3267 594.809 36.744 593.238 36.744H583.738V50.196H593.314Z" fill="white"/>
<path d="M612.68 75.04C612.952 75.312 613.088 75.872 613.088 76.72V76.816C613.088 77.2 613.072 77.488 613.04 77.68C613.024 77.856 612.944 78.072 612.8 78.328C612.56 78.792 611.952 79.024 610.976 79.024C610.016 79.024 609.376 78.872 609.056 78.568C608.752 78.264 608.6 77.688 608.6 76.84V76.744C608.6 76.376 608.608 76.096 608.624 75.904C608.656 75.712 608.736 75.496 608.864 75.256C609.104 74.776 609.704 74.536 610.664 74.536C611.64 74.536 612.312 74.704 612.68 75.04ZM616.791 61.384L621.231 61.408C623.551 61.408 625.591 62.248 627.351 63.928C629.111 65.592 629.991 67.648 629.991 70.096C629.991 72.528 629.127 74.616 627.399 76.36C625.687 78.104 623.607 78.976 621.159 78.976H616.767C615.791 78.976 615.183 78.776 614.943 78.376C614.751 78.04 614.655 77.528 614.655 76.84V63.496C614.655 63.112 614.663 62.832 614.679 62.656C614.711 62.48 614.791 62.272 614.919 62.032C615.143 61.6 615.767 61.384 616.791 61.384ZM621.231 74.728C622.383 74.728 623.423 74.304 624.351 73.456C625.279 72.592 625.743 71.512 625.743 70.216C625.743 68.92 625.287 67.84 624.375 66.976C623.479 66.096 622.423 65.656 621.207 65.656H618.903V74.728H621.231ZM635.802 74.752H643.194C643.562 74.752 643.834 74.768 644.01 74.8C644.202 74.816 644.418 74.888 644.658 75.016C645.09 75.24 645.306 75.864 645.306 76.888C645.306 78.008 645.01 78.664 644.418 78.856C644.146 78.952 643.73 79 643.17 79H633.666C632.546 79 631.89 78.696 631.698 78.088C631.602 77.832 631.554 77.424 631.554 76.864V63.52C631.554 62.704 631.706 62.152 632.01 61.864C632.314 61.56 632.89 61.408 633.738 61.408H643.194C643.562 61.408 643.834 61.424 644.01 61.456C644.202 61.472 644.418 61.544 644.658 61.672C645.09 61.896 645.306 62.52 645.306 63.544C645.306 64.664 645.01 65.32 644.418 65.512C644.146 65.608 643.73 65.656 643.17 65.656H635.802V68.08H640.554C640.922 68.08 641.194 68.096 641.37 68.128C641.562 68.144 641.778 68.216 642.018 68.344C642.45 68.568 642.666 69.192 642.666 70.216C642.666 71.336 642.362 71.992 641.754 72.184C641.482 72.28 641.066 72.328 640.506 72.328H635.802V74.752ZM662.914 61.672C663.858 62.136 664.33 62.648 664.33 63.208C664.33 63.464 664.21 63.848 663.97 64.36L657.346 77.8C657.17 78.152 656.898 78.44 656.53 78.664C656.178 78.872 655.81 78.976 655.426 78.976H655.186C654.786 78.976 654.402 78.872 654.034 78.664C653.682 78.44 653.418 78.152 653.242 77.8L646.618 64.36C646.378 63.848 646.258 63.464 646.258 63.208C646.258 62.648 646.73 62.136 647.674 61.672C648.202 61.4 648.602 61.264 648.874 61.264C649.162 61.264 649.378 61.296 649.522 61.36C649.666 61.424 649.802 61.536 649.93 61.696C650.074 61.888 650.202 62.104 650.314 62.344C650.442 62.568 650.754 63.232 651.25 64.336C651.746 65.424 652.274 66.584 652.834 67.816C653.41 69.048 653.946 70.216 654.442 71.32C654.954 72.408 655.242 73.016 655.306 73.144L660.106 62.632C660.234 62.328 660.346 62.088 660.442 61.912C660.73 61.48 661.082 61.264 661.498 61.264C661.914 61.264 662.386 61.4 662.914 61.672Z" fill="white"/>
</svg>
