<svg fill="none" xmlns="http://www.w3.org/2000/svg">
<path d="M439.875 81.875C440.158 82.1583 440.3 82.7417 440.3 83.625V83.725C440.3 84.125 440.283 84.425 440.25 84.625C440.233 84.8083 440.15 85.0333 440 85.3C439.75 85.7833 439.117 86.025 438.1 86.025C437.1 86.025 436.433 85.8667 436.1 85.55C435.783 85.2333 435.625 84.6333 435.625 83.75V83.65C435.625 83.2667 435.633 82.975 435.65 82.775C435.683 82.575 435.767 82.35 435.9 82.1C436.15 81.6 436.775 81.35 437.775 81.35C438.792 81.35 439.492 81.525 439.875 81.875ZM444.158 67.65L448.783 67.675C451.199 67.675 453.324 68.55 455.158 70.3C456.991 72.0333 457.908 74.175 457.908 76.725C457.908 79.2583 457.008 81.4333 455.208 83.25C453.424 85.0667 451.258 85.975 448.708 85.975H444.133C443.116 85.975 442.483 85.7667 442.233 85.35C442.033 85 441.933 84.4667 441.933 83.75V69.85C441.933 69.45 441.941 69.1583 441.958 68.975C441.991 68.7917 442.074 68.575 442.208 68.325C442.441 67.875 443.091 67.65 444.158 67.65ZM448.783 81.55C449.983 81.55 451.066 81.1083 452.033 80.225C452.999 79.325 453.483 78.2 453.483 76.85C453.483 75.5 453.008 74.375 452.058 73.475C451.124 72.5583 450.024 72.1 448.758 72.1H446.358V81.55H448.783ZM463.96 81.575H471.66C472.043 81.575 472.327 81.5917 472.51 81.625C472.71 81.6417 472.935 81.7167 473.185 81.85C473.635 82.0833 473.86 82.7333 473.86 83.8C473.86 84.9667 473.552 85.65 472.935 85.85C472.652 85.95 472.218 86 471.635 86H461.735C460.568 86 459.885 85.6833 459.685 85.05C459.585 84.7833 459.535 84.3583 459.535 83.775V69.875C459.535 69.025 459.693 68.45 460.01 68.15C460.327 67.8333 460.927 67.675 461.81 67.675H471.66C472.043 67.675 472.327 67.6917 472.51 67.725C472.71 67.7417 472.935 67.8167 473.185 67.95C473.635 68.1833 473.86 68.8333 473.86 69.9C473.86 71.0667 473.552 71.75 472.935 71.95C472.652 72.05 472.218 72.1 471.635 72.1H463.96V74.625H468.91C469.293 74.625 469.577 74.6417 469.76 74.675C469.96 74.6917 470.185 74.7667 470.435 74.9C470.885 75.1333 471.11 75.7833 471.11 76.85C471.11 78.0167 470.793 78.7 470.16 78.9C469.877 79 469.443 79.05 468.86 79.05H463.96V81.575ZM492.203 67.95C493.186 68.4333 493.678 68.9667 493.678 69.55C493.678 69.8167 493.553 70.2167 493.303 70.75L486.403 84.75C486.219 85.1167 485.936 85.4167 485.553 85.65C485.186 85.8667 484.803 85.975 484.403 85.975H484.153C483.736 85.975 483.336 85.8667 482.953 85.65C482.586 85.4167 482.311 85.1167 482.128 84.75L475.228 70.75C474.978 70.2167 474.853 69.8167 474.853 69.55C474.853 68.9667 475.344 68.4333 476.328 67.95C476.878 67.6667 477.294 67.525 477.578 67.525C477.878 67.525 478.103 67.5583 478.253 67.625C478.403 67.6917 478.544 67.8083 478.678 67.975C478.828 68.175 478.961 68.4 479.078 68.65C479.211 68.8833 479.536 69.575 480.053 70.725C480.569 71.8583 481.119 73.0667 481.703 74.35C482.303 75.6333 482.861 76.85 483.378 78C483.911 79.1333 484.211 79.7667 484.278 79.9L489.278 68.95C489.411 68.6333 489.528 68.3833 489.628 68.2C489.928 67.75 490.294 67.525 490.728 67.525C491.161 67.525 491.653 67.6667 492.203 67.95Z" fill="white"/>
<path fill-rule="evenodd" clip-rule="evenodd" d="M72.8401 1.87614C73.0121 2.05169 73.1692 2.2384 73.3108 2.43461V27H35C31.6863 27 29 29.6863 29 33V91C29 94.3137 31.6863 97 35 97H73.3108V122.475C73.156 122.688 72.9858 122.881 72.7983 123.06C72.6288 123.224 72.4224 123.393 72.2159 123.532C71.9337 123.722 71.5939 123.901 71.2722 124.018C70.7943 124.2 70.2377 124.295 69.6944 124.291L52.9122 123.881C51.7058 123.873 50.483 123.336 49.6035 122.417C48.7148 121.485 48.2436 120.251 48.283 118.943C48.4604 114.409 48.3992 112.328 48.3093 111.378C48.0465 108.582 46.3768 106.164 43.8566 104.92C41.3964 103.706 38.6437 103.839 36.4894 105.291C36.1108 105.546 35.7486 105.841 35.4095 106.169L30.413 111.008C30.2297 111.182 30.0074 111.372 29.794 111.515C29.5187 111.701 29.2317 111.854 28.9215 111.973C28.3333 112.2 27.7146 112.306 27.0906 112.286C26.4667 112.267 25.849 112.122 25.2675 111.854C24.7714 111.637 24.2724 111.283 23.8535 110.855L12.0948 98.6508C11.6875 98.2247 11.3186 97.6625 11.0972 97.1111C10.8803 96.5666 10.7693 96.0008 10.7549 95.43C10.7473 94.8545 10.8592 94.2185 11.0638 93.6903C11.091 93.6119 11.1229 93.5404 11.1547 93.4689C11.4052 92.9197 11.7435 92.4415 12.1627 92.0388C12.4351 91.7759 12.7314 91.4969 13.0385 91.2077L13.0391 91.2071C13.1968 91.0586 13.3574 90.9073 13.5191 90.7542L13.5674 90.709C15.344 89.0433 17.541 86.9836 18.3751 85.4394C19.78 82.831 19.4783 79.621 17.5777 77.0684C15.3432 74.0501 12.5383 73.8686 7.365 73.7819L7.28674 73.7846C6.37503 73.7685 5.46331 73.7524 4.53767 73.7156C1.99793 73.6156 0.00291359 71.517 0.00832294 68.9409L0 52.2506C0.0126343 50.6505 0.744576 49.2564 2.00415 48.4074C2.78192 47.8832 3.70829 47.6092 4.67762 47.6365C5.41198 47.6448 6.21738 47.6804 7.03673 47.7166L7.03693 47.7166L7.41532 47.7332L7.42049 47.7334C9.59952 47.8352 11.8606 47.9407 13.3357 47.6066C14.3613 47.3758 15.2871 46.9821 16.0786 46.4486C17.7856 45.2981 18.8607 43.4925 19.1009 41.3687C19.3676 39.0169 18.5472 36.567 16.8362 34.6372C15.3775 32.9779 13.8199 31.3351 12.2142 29.7548C11.7399 29.2737 11.4058 28.7782 11.1636 28.2108C10.9261 27.6802 10.7894 27.0616 10.7725 26.4424C10.7701 26.424 10.7706 26.4062 10.7711 26.3883L10.7711 26.3882C10.7715 26.3704 10.772 26.3526 10.7696 26.3342C10.7756 25.6896 10.8878 25.1135 11.1061 24.576C11.3517 23.99 11.683 23.4865 12.1067 23.0608L23.707 11.6389C23.9154 11.4284 24.1562 11.2361 24.4108 11.0645L24.4268 11.0437C26.354 9.74473 28.9571 10.0723 30.612 11.8297C31.0193 12.2558 31.4337 12.7072 31.8527 13.1655C33.5402 15.001 35.6142 17.2466 37.1196 18.1138C39.5877 19.5333 42.8006 19.3697 45.2853 17.695C47.1919 16.41 48.2485 14.5768 48.3319 12.3986C48.4343 9.87724 48.4538 7.35172 48.3907 4.88187C48.3668 4.26732 48.4786 3.60145 48.7172 2.99018C48.9422 2.41812 49.2711 1.89619 49.6993 1.44742C49.9811 1.16744 50.2103 0.972899 50.465 0.801256C50.7403 0.615697 51.041 0.453033 51.3581 0.32942C51.9601 0.0938659 52.5857 -0.0174909 53.2396 0.00222775L69.5269 0.435631C70.7379 0.450234 71.9584 0.968951 72.8401 1.87614Z" fill="white"/>
<rect x="60" y="97" width="435" height="8" rx="3" fill="white"/>
<path d="M67.5 40.02C68.42 40.02 69.1 40.06 69.54 40.14C70.02 40.18 70.54 40.36 71.1 40.68C71.7 41 72.12 41.54 72.36 42.3C72.6 43.06 72.72 44.08 72.72 45.36C72.72 46.64 72.6 47.66 72.36 48.42C72.12 49.18 71.7 49.72 71.1 50.04C70.5 50.32 69.96 50.5 69.48 50.58C69.04 50.62 68.34 50.64 67.38 50.64L49.02 50.64L49.02 56.7L60.84 56.7C61.8 56.7 62.5 56.74 62.94 56.82C63.42 56.86 63.96 57.04 64.56 57.36C65.6 57.96 66.12 59.54 66.12 62.1C66.12 64.9 65.36 66.56 63.84 67.08C63.2 67.28 62.18 67.38 60.78 67.38L49.02 67.38L49.02 78.72C49.02 79.68 48.98 80.38 48.9 80.82C48.86 81.26 48.68 81.78 48.36 82.38C47.8 83.46 46.24 84 43.68 84C40.88 84 39.24 83.24 38.76 81.72C38.52 81.08 38.4 80.06 38.4 78.66L38.4 45.3C38.4 43.26 38.78 41.88 39.54 41.16C40.3 40.4 41.74 40.02 43.86 40.02L67.5 40.02ZM87.2231 75.12L103.543 75.12C104.863 75.12 105.823 75.28 106.423 75.6C107.023 75.88 107.423 76.34 107.623 76.98C107.823 77.62 107.923 78.48 107.923 79.56C107.923 80.6 107.823 81.44 107.623 82.08C107.423 82.72 107.083 83.16 106.603 83.4C105.843 83.8 104.803 84 103.483 84L81.8831 84C79.0831 84 77.4431 83.24 76.9631 81.72C76.7231 81.08 76.6031 80.06 76.6031 78.66L76.6031 45.3C76.6031 44.38 76.6231 43.7 76.6631 43.26C76.7431 42.78 76.9431 42.24 77.2631 41.64C77.8231 40.56 79.3831 40.02 81.9431 40.02C84.7431 40.02 86.4031 40.76 86.9231 42.24C87.1231 42.92 87.2231 43.96 87.2231 45.36L87.2231 75.12ZM140.558 41.64C140.958 41 141.538 40.56 142.298 40.32C143.058 40.08 143.998 39.96 145.118 39.96C146.278 39.96 147.198 40.06 147.878 40.26C148.558 40.46 149.078 40.7 149.438 40.98C149.798 41.26 150.058 41.68 150.218 42.24C150.458 42.92 150.578 43.96 150.578 45.36L150.578 63.48C150.578 68.76 148.938 73.56 145.658 77.88C144.058 79.92 141.998 81.58 139.478 82.86C136.958 84.1 134.158 84.72 131.078 84.72C128.038 84.72 125.258 84.08 122.738 82.8C120.258 81.52 118.238 79.84 116.678 77.76C113.438 73.52 111.818 68.72 111.818 63.36L111.818 45.3C111.818 44.34 111.838 43.64 111.878 43.2C111.958 42.72 112.158 42.18 112.478 41.58C112.798 40.98 113.338 40.56 114.098 40.32C114.858 40.08 115.878 39.96 117.158 39.96C118.438 39.96 119.458 40.08 120.218 40.32C120.978 40.56 121.498 40.98 121.778 41.58C122.258 42.5 122.498 43.76 122.498 45.36L122.498 63.36C122.498 65.8 123.098 68.12 124.298 70.32C124.898 71.44 125.798 72.34 126.998 73.02C128.198 73.7 129.618 74.04 131.258 74.04C134.178 74.04 136.358 72.96 137.798 70.8C139.238 68.64 139.958 66.14 139.958 63.3L139.958 44.94C139.958 43.38 140.158 42.28 140.558 41.64ZM158.233 39.96L191.593 39.96C192.873 39.96 193.813 40.12 194.413 40.44C195.013 40.72 195.413 41.18 195.613 41.82C195.813 42.46 195.913 43.3 195.913 44.34C195.913 45.38 195.813 46.22 195.613 46.86C195.413 47.46 195.073 47.88 194.593 48.12C193.873 48.48 192.853 48.66 191.533 48.66L180.073 48.66L180.073 78.84C180.073 79.76 180.033 80.44 179.953 80.88C179.913 81.32 179.733 81.84 179.413 82.44C179.133 83 178.613 83.4 177.853 83.64C177.093 83.88 176.093 84 174.853 84C173.613 84 172.613 83.88 171.853 83.64C171.133 83.4 170.613 83 170.293 82.44C170.013 81.84 169.833 81.32 169.753 80.88C169.713 80.4 169.693 79.7 169.693 78.78L169.693 48.66L158.173 48.66C156.893 48.66 155.953 48.52 155.353 48.24C154.753 47.92 154.353 47.44 154.153 46.8C153.953 46.16 153.853 45.32 153.853 44.28C153.853 43.24 153.953 42.42 154.153 41.82C154.353 41.18 154.693 40.74 155.173 40.5C155.893 40.14 156.913 39.96 158.233 39.96ZM202.12 39.96L235.48 39.96C236.76 39.96 237.7 40.12 238.3 40.44C238.9 40.72 239.3 41.18 239.5 41.82C239.7 42.46 239.8 43.3 239.8 44.34C239.8 45.38 239.7 46.22 239.5 46.86C239.3 47.46 238.96 47.88 238.48 48.12C237.76 48.48 236.74 48.66 235.42 48.66L223.96 48.66L223.96 78.84C223.96 79.76 223.92 80.44 223.84 80.88C223.8 81.32 223.62 81.84 223.3 82.44C223.02 83 222.5 83.4 221.74 83.64C220.98 83.88 219.98 84 218.74 84C217.5 84 216.5 83.88 215.74 83.64C215.02 83.4 214.5 83 214.18 82.44C213.9 81.84 213.72 81.32 213.64 80.88C213.6 80.4 213.58 79.7 213.58 78.78L213.58 48.66L202.06 48.66C200.78 48.66 199.84 48.52 199.24 48.24C198.64 47.92 198.24 47.44 198.04 46.8C197.84 46.16 197.74 45.32 197.74 44.28C197.74 43.24 197.84 42.42 198.04 41.82C198.24 41.18 198.58 40.74 199.06 40.5C199.78 40.14 200.8 39.96 202.12 39.96ZM253.747 73.38L272.227 73.38C273.147 73.38 273.827 73.42 274.267 73.5C274.747 73.54 275.287 73.72 275.887 74.04C276.967 74.6 277.507 76.16 277.507 78.72C277.507 81.52 276.767 83.16 275.287 83.64C274.607 83.88 273.567 84 272.167 84L248.407 84C245.607 84 243.967 83.24 243.487 81.72C243.247 81.08 243.127 80.06 243.127 78.66L243.127 45.3C243.127 43.26 243.507 41.88 244.267 41.16C245.027 40.4 246.467 40.02 248.587 40.02L272.227 40.02C273.147 40.02 273.827 40.06 274.267 40.14C274.747 40.18 275.287 40.36 275.887 40.68C276.967 41.24 277.507 42.8 277.507 45.36C277.507 48.16 276.767 49.8 275.287 50.28C274.607 50.52 273.567 50.64 272.167 50.64L253.747 50.64L253.747 56.7L265.627 56.7C266.547 56.7 267.227 56.74 267.667 56.82C268.147 56.86 268.687 57.04 269.287 57.36C270.367 57.92 270.907 59.48 270.907 62.04C270.907 64.84 270.147 66.48 268.627 66.96C267.947 67.2 266.907 67.32 265.507 67.32L253.747 67.32L253.747 73.38ZM315.048 76.56C315.648 78 315.948 79.04 315.948 79.68C315.948 81.2 314.708 82.48 312.228 83.52C310.948 84.08 309.908 84.36 309.108 84.36C308.348 84.36 307.708 84.18 307.188 83.82C306.708 83.42 306.348 83.02 306.108 82.62C305.708 81.86 304.148 78.24 301.428 71.76L299.568 71.88L292.008 71.88L292.008 78.66C292.008 79.58 291.968 80.28 291.888 80.76C291.848 81.2 291.668 81.72 291.348 82.32C290.788 83.4 289.228 83.94 286.668 83.94C283.868 83.94 282.228 83.2 281.748 81.72C281.508 81.04 281.388 80 281.388 78.6L281.388 45.3C281.388 44.38 281.408 43.7 281.448 43.26C281.528 42.78 281.728 42.24 282.048 41.64C282.608 40.56 284.168 40.02 286.728 40.02L299.688 40.02C303.208 40.02 306.628 41.3 309.948 43.86C311.548 45.1 312.868 46.78 313.908 48.9C314.948 51.02 315.468 53.38 315.468 55.98C315.468 60.5 313.968 64.22 310.968 67.14C311.848 69.26 313.208 72.4 315.048 76.56ZM292.008 61.26L299.688 61.26C300.848 61.26 302.008 60.82 303.168 59.94C304.328 59.06 304.908 57.74 304.908 55.98C304.908 54.22 304.328 52.9 303.168 52.02C302.008 51.1 300.808 50.64 299.568 50.64L292.008 50.64L292.008 61.26ZM348.34 40.02C349.26 40.02 349.94 40.06 350.38 40.14C350.86 40.18 351.38 40.36 351.94 40.68C352.54 41 352.96 41.54 353.2 42.3C353.44 43.06 353.56 44.08 353.56 45.36C353.56 46.64 353.44 47.66 353.2 48.42C352.96 49.18 352.54 49.72 351.94 50.04C351.34 50.32 350.8 50.5 350.32 50.58C349.88 50.62 349.18 50.64 348.22 50.64L329.86 50.64L329.86 56.7L341.68 56.7C342.64 56.7 343.34 56.74 343.78 56.82C344.26 56.86 344.8 57.04 345.4 57.36C346.44 57.96 346.96 59.54 346.96 62.1C346.96 64.9 346.2 66.56 344.68 67.08C344.04 67.28 343.02 67.38 341.62 67.38L329.86 67.38L329.86 78.72C329.86 79.68 329.82 80.38 329.74 80.82C329.7 81.26 329.52 81.78 329.2 82.38C328.64 83.46 327.08 84 324.52 84C321.72 84 320.08 83.24 319.6 81.72C319.36 81.08 319.24 80.06 319.24 78.66L319.24 45.3C319.24 43.26 319.62 41.88 320.38 41.16C321.14 40.4 322.58 40.02 324.7 40.02L348.34 40.02ZM368.063 75.12L384.383 75.12C385.703 75.12 386.663 75.28 387.263 75.6C387.863 75.88 388.263 76.34 388.463 76.98C388.663 77.62 388.763 78.48 388.763 79.56C388.763 80.6 388.663 81.44 388.463 82.08C388.263 82.72 387.923 83.16 387.443 83.4C386.683 83.8 385.643 84 384.323 84L362.723 84C359.923 84 358.283 83.24 357.803 81.72C357.563 81.08 357.443 80.06 357.443 78.66L357.443 45.3C357.443 44.38 357.463 43.7 357.503 43.26C357.583 42.78 357.783 42.24 358.103 41.64C358.663 40.56 360.223 40.02 362.783 40.02C365.583 40.02 367.243 40.76 367.763 42.24C367.963 42.92 368.063 43.96 368.063 45.36L368.063 75.12ZM392.658 45.3C392.658 44.38 392.678 43.7 392.718 43.26C392.798 42.78 392.998 42.24 393.318 41.64C393.878 40.56 395.438 40.02 397.998 40.02C400.798 40.02 402.458 40.76 402.978 42.24C403.178 42.92 403.278 43.96 403.278 45.36L403.278 78.72C403.278 79.68 403.238 80.38 403.158 80.82C403.118 81.26 402.938 81.78 402.618 82.38C402.058 83.46 400.498 84 397.938 84C395.138 84 393.498 83.24 393.018 81.72C392.778 81.08 392.658 80.06 392.658 78.66L392.658 45.3ZM440.528 48.9C441.568 51.02 442.088 53.38 442.088 55.98C442.088 58.58 441.568 60.94 440.528 63.06C439.488 65.14 438.148 66.8 436.508 68.04C433.188 70.6 429.748 71.88 426.188 71.88L418.688 71.88L418.688 78.66C418.688 79.58 418.648 80.28 418.568 80.76C418.528 81.2 418.348 81.72 418.028 82.32C417.468 83.4 415.908 83.94 413.348 83.94C410.548 83.94 408.908 83.2 408.428 81.72C408.188 81.04 408.068 80 408.068 78.6L408.068 45.3C408.068 44.38 408.088 43.7 408.128 43.26C408.208 42.78 408.408 42.24 408.728 41.64C409.288 40.56 410.848 40.02 413.408 40.02L426.248 40.02C429.768 40.02 433.188 41.3 436.508 43.86C438.148 45.1 439.488 46.78 440.528 48.9ZM426.248 61.26C427.448 61.26 428.628 60.82 429.788 59.94C430.948 59.06 431.528 57.74 431.528 55.98C431.528 54.22 430.948 52.9 429.788 52.02C428.628 51.1 427.428 50.64 426.188 50.64L418.688 50.64L418.688 61.26L426.248 61.26Z" fill="white"/>
</svg>
