<svg width="81" height="81" viewBox="0 0 81 81" fill="none" xmlns="http://www.w3.org/2000/svg">
<path fill-rule="evenodd" clip-rule="evenodd" d="M78.9634 47.5051C79.0904 47.4135 79.2113 47.3117 79.3249 47.2004C79.9128 46.629 80.2489 45.8382 80.2584 45.0535L80.5392 34.4993C80.552 34.0755 80.4798 33.6701 80.3272 33.2801C80.2471 33.0746 80.1417 32.8797 80.0214 32.7013C79.9102 32.5363 79.7841 32.3877 79.6027 32.2052C79.3119 31.9277 78.9737 31.7146 78.603 31.5688C78.2069 31.4141 77.7754 31.3417 77.3772 31.3572C75.7767 31.3981 74.1402 31.3854 72.5064 31.3191C71.0949 31.2651 69.907 30.5804 69.0743 29.3449C67.9891 27.7348 67.8831 25.6528 68.8029 24.0535C69.3648 23.078 70.82 21.734 72.0094 20.6405C72.3064 20.369 72.5989 20.1005 72.875 19.8366C74.0138 18.7642 74.2261 17.0774 73.3844 15.8286L73.3709 15.8182C73.2597 15.6532 73.1351 15.4972 72.9986 15.3621L65.5973 7.84517C65.3214 7.57059 64.9951 7.35593 64.6154 7.19674C64.2671 7.05529 63.8938 6.98258 63.4761 6.97873C63.4641 6.98028 63.4526 6.97996 63.441 6.97965C63.4295 6.97933 63.4179 6.97902 63.406 6.98057C63.0047 6.99155 62.6039 7.08009 62.2601 7.23399C61.8924 7.39099 61.5713 7.60743 61.2596 7.91482C60.2355 8.95528 59.171 9.96462 58.0957 10.9099C56.8452 12.0186 55.2577 12.5502 53.7337 12.3774C52.3575 12.2218 51.1875 11.525 50.4419 10.4189C50.0962 9.90602 49.8411 9.30613 49.6916 8.64156C49.4751 7.68568 49.5435 6.22047 49.6094 4.80845L49.6095 4.80513L49.6203 4.5597L49.6203 4.55964L49.6203 4.55958C49.6438 4.02872 49.6668 3.50689 49.6722 3.0311C49.6899 2.40298 49.5123 1.80269 49.1726 1.29869C48.6225 0.48249 47.7191 0.0081897 46.6823 4.03757e-07L35.867 0.00539315C34.1976 0.0018912 32.8377 1.29467 32.7729 2.94041C32.7491 3.54023 32.7387 4.13102 32.7282 4.72181L32.73 4.77253C32.6738 8.12482 32.5562 9.9424 30.6003 11.3903C28.9462 12.622 26.8662 12.8174 25.1759 11.907C24.1753 11.3666 22.8405 9.94292 21.7612 8.79167L21.7319 8.76038C21.6327 8.65566 21.5347 8.55162 21.4385 8.44942L21.438 8.44891C21.2506 8.24991 21.0698 8.0579 20.8995 7.88146C20.6386 7.60978 20.3287 7.39056 19.9728 7.22827C19.9265 7.20761 19.8801 7.18697 19.8293 7.16932C19.487 7.03679 19.0749 6.96428 18.702 6.96915C18.3321 6.97848 17.9655 7.05044 17.6126 7.19096C17.2553 7.33448 16.8911 7.57351 16.6149 7.83745L8.70675 15.4571C8.42916 15.7285 8.19957 16.0519 8.05947 16.3733C7.88535 16.7501 7.79189 17.1504 7.77901 17.5547C7.76614 17.9591 7.8353 18.36 7.98193 18.7412C8.05902 18.9422 8.15842 19.1281 8.27866 19.3065C8.37185 19.4448 8.4949 19.5889 8.60738 19.7076L11.743 22.9454C11.956 23.1651 12.1466 23.3998 12.312 23.6451C13.2528 25.0411 13.3394 26.8249 12.5524 28.4191C11.7461 30.0521 10.1792 31.1341 8.3676 31.3044C7.75179 31.3627 6.40344 31.4023 3.46555 31.2874C2.6181 31.2618 1.81857 31.5672 1.21433 32.1431C0.618996 32.713 0.270943 33.5054 0.265938 34.2871L0.000130245 45.162C-0.00257056 45.514 0.0589224 45.8747 0.176842 46.1844C0.252488 46.3929 0.368462 46.6131 0.491715 46.7959C0.581894 46.9297 0.691468 47.0635 0.797944 47.1733C0.913437 47.2947 1.03836 47.4049 1.17623 47.5051L15.7406 47.5051L15.7406 77.9997C15.7406 79.6566 17.0837 80.9997 18.7406 80.9997L62.6366 80.9997C64.2934 80.9997 65.6366 79.6566 65.6366 77.9997L65.6366 47.5052L78.9634 47.5051ZM60.4526 26.976C60.4526 25.3192 59.1095 23.976 57.4526 23.976L23.9246 23.976C22.2678 23.976 20.9246 25.3192 20.9246 26.976L20.9246 73.4641C20.9246 75.1209 22.2678 76.4641 23.9246 76.4641L57.4526 76.4641C59.1095 76.4641 60.4526 75.1209 60.4526 73.4641L60.4526 26.976Z" fill="white"/>
<path d="M48.2656 36.68C48.879 36.68 49.3323 36.7067 49.6256 36.76C49.9456 36.7867 50.2923 36.9067 50.6656 37.12C51.0656 37.3333 51.3456 37.6933 51.5056 38.2C51.6656 38.7067 51.7456 39.3867 51.7456 40.24C51.7456 41.0933 51.6656 41.7733 51.5056 42.28C51.3456 42.7867 51.0656 43.1467 50.6656 43.36C50.2656 43.5467 49.9056 43.6667 49.5856 43.72C49.2923 43.7467 48.8256 43.76 48.1856 43.76H35.9456V47.8H43.8256C44.4656 47.8 44.9323 47.8267 45.2256 47.88C45.5456 47.9067 45.9056 48.0267 46.3056 48.24C46.999 48.64 47.3456 49.6933 47.3456 51.4C47.3456 53.2667 46.839 54.3733 45.8256 54.72C45.399 54.8533 44.719 54.92 43.7856 54.92H35.9456V62.48C35.9456 63.12 35.919 63.5867 35.8656 63.88C35.839 64.1733 35.719 64.52 35.5056 64.92C35.1323 65.64 34.0923 66 32.3856 66C30.519 66 29.4256 65.4933 29.1056 64.48C28.9456 64.0533 28.8656 63.3733 28.8656 62.44V40.2C28.8656 38.84 29.119 37.92 29.6256 37.44C30.1323 36.9333 31.0923 36.68 32.5056 36.68H48.2656Z" fill="white"/>
</svg>
